<?xml version="1.0" encoding="UTF-8"?>
<!DOCTYPE svg PUBLIC "-//W3C//DTD SVG 1.1//EN" "http://www.w3.org/Graphics/SVG/1.1/DTD/svg11.dtd">
<!-- Creator: CorelDRAW -->
<svg xmlns="http://www.w3.org/2000/svg" xml:space="preserve" width="72.063mm" height="40.585mm" version="1.1" style="shape-rendering:geometricPrecision; text-rendering:geometricPrecision; image-rendering:optimizeQuality; fill-rule:evenodd; clip-rule:evenodd"
viewBox="0 0 7206.3 4058.5"
 xmlns:xlink="http://www.w3.org/1999/xlink"
 xmlns:xodm="http://www.corel.com/coreldraw/odm/2003">
 <defs>
  <style type="text/css">
   <![CDATA[
    .fil0 {fill:#073F7D;fill-rule:nonzero}
    .fil1 {fill:#E96700;fill-rule:nonzero}
   ]]>
  </style>
 </defs>
 <g id="Layer_x0020_1">
  <metadata id="CorelCorpID_0Corel-Layer"/>
  <g id="_2831352229888">
   <polygon class="fil0" points="5042.44,3326.7 3387.66,3326.7 3387.66,2664.75 5042.44,2664.75 "/>
   <path class="fil0" d="M2307.74 3.32l0 663.84 -2311.39 0 0 -663.84 2311.39 0zm0 1593.2l0 668.02 -1625.6 0 0 1062.13 -685.79 0 0 -1730.15 2311.39 0z"/>
   <path class="fil1" d="M4997.25 2301.13c-85.73,192.35 -202.81,376.34 -361.71,531.06 -298.99,303.17 -745.38,494.48 -1202.22,494.48l-1154.13 0 0 -663.83 1154.13 0c272.85,0 534.2,-103.5 711.92,-287.49 191.31,-195.49 297.94,-453.71 297.94,-711.92 0,-258.22 -106.63,-516.43 -302.12,-707.74 -188.17,-185.04 -427.57,-288.53 -707.74,-288.53l-1154.13 0 0 -663.84 1154.13 0c737.01,0 1308.85,457.89 1563.93,1025.55 95.13,206.99 132.76,417.11 132.76,634.56 0,221.63 -37.63,431.75 -132.76,637.7z"/>
   <path class="fil0" d="M5369.01 3.32l881.28 0 4.18 663.84 -885.46 0c-198.63,0 -331.39,148.44 -331.39,332.44 0,88.86 29.27,173.53 95.13,239.39 66.9,66.91 141.13,100.36 236.26,100.36l811.24 0c288.53,0 535.24,106.63 723.42,290.63 202.81,195.49 298.98,443.25 298.98,700.42 0,498.66 -398.3,996.27 -1022.4,996.27l-1043.32 0 0 -671.15 1043.32 7.32c199.67,4.18 335.57,-147.41 335.57,-332.44 0,-87.82 -36.59,-165.18 -102.45,-235.22 -70.04,-66.9 -136.95,-100.36 -233.12,-100.36l-811.24 0c-287.49,0 -534.2,-106.63 -722.38,-290.62 -199.67,-195.49 -294.8,-450.57 -294.8,-704.6 0,-494.48 398.3,-996.28 1017.18,-996.28z"/>
   <path class="fil1" d="M3622.11 1958.8c-25.58,15.1 -48.26,29.07 -71.47,42.09 -89.4,50.09 -182.6,90.91 -282.79,114.37 -49.85,11.64 -100.44,18.24 -151.59,16.79 -98.46,-2.78 -184.61,-34.99 -251.04,-110.66 -40.53,-46.18 -67.09,-100.23 -85.54,-158.37 -7.59,-23.95 -13.41,-48.5 -20.04,-72.77 0.99,-0.39 1.97,-0.78 2.96,-1.17 1.94,3.88 3.92,7.76 5.86,11.64 25.22,50.03 54.26,97.37 94.51,137.02 40,39.41 86.92,65.23 143.33,71.3 46.29,4.97 90.91,-3.46 134.48,-18.84 64.88,-22.9 124,-56.87 181.01,-94.58 82.27,-54.4 163.41,-110.49 246.03,-164.32 43.53,-28.33 90.06,-51.79 140.9,-64.74 65.33,-16.65 129.18,-13.72 188.77,20.67 54.47,31.47 85.3,79.56 92.71,141.96 6.45,54.44 -8.89,104.28 -36.13,150.67 -72.28,123.09 -174.41,212.66 -305.29,269.7 -53.69,23.43 -109.68,39.2 -167.61,46.32 -35.31,4.34 -71.26,4.8 -106.92,4.73 -73.84,-0.07 -144.75,-16.44 -213.57,-42.33 -35.39,-13.34 -69.4,-29.57 -101.67,-50.73 230.82,14.99 430,-63.64 610.27,-204.16 29.24,47.59 58.45,95.11 88.54,144.04 11.5,-7.58 22.51,-14.57 33.2,-21.97 23.25,-16.09 20.07,-8.22 13.69,-34.89 -11.04,-46.29 -22.44,-92.54 -34.08,-138.68 -2.19,-8.72 -1.31,-14.54 6.49,-20.64 25.79,-20.25 51.08,-41.13 76.02,-62.41 8.08,-6.91 15.98,-14.88 21.35,-23.91 8.32,-14.01 0.31,-27.63 -16.13,-26.36 -13.72,1.1 -28.18,4.59 -40.35,10.83 -33.34,17.15 -65.73,36.13 -98.25,54.79 -6.7,3.81 -12.53,4.66 -19.97,2.43 -60.18,-17.81 -120.58,-35.06 -180.76,-52.95 -8.61,-2.57 -15.24,-1.8 -22.51,3.46 -12.95,9.45 -26.49,18.1 -41.73,28.36 56.19,31.37 110.28,61.53 167.32,93.31z"/>
   <path class="fil0" d="M4020.63 1491.5c-15.81,-8.08 -30.13,-15.38 -44.42,-22.75 -35,-18.07 -72.6,-25.19 -111.55,-25.76 -44.1,-0.63 -86.15,9.07 -127.49,24.45 -39.23,14.64 -76.06,33.58 -110.6,56.66 -30.55,20.35 -59.48,43.11 -89.11,64.84 -23.64,17.39 -47.24,34.82 -70.84,52.28 -46.03,34.04 -91.51,68.97 -138.29,101.99 -41.87,29.56 -85.19,56.93 -130.98,80.39 -33.8,17.29 -68.79,31.47 -105.52,40.64 -63.6,15.91 -127.03,14.4 -188.35,-9.45 -48.93,-19.01 -83.08,-55.32 -107.31,-101.46 -27.06,-51.57 -37.71,-107.17 -41.24,-164.57 -0.64,-10.16 -0.11,-20.39 2.15,-30.87 2.47,11.89 4.83,23.78 7.44,35.63 7.27,32.78 17.57,64.46 36.27,92.64 21.63,32.56 51.05,53.84 90.95,56.98 31.08,2.43 61.24,-3.78 90.2,-14.86 50.1,-19.15 96.49,-45.08 139.84,-76.55 22.69,-16.47 46.25,-31.78 67.98,-49.39 45.9,-37.11 91.05,-75.17 136.1,-113.31 36.55,-30.97 72.68,-62.41 108.77,-93.91 41.13,-35.88 84.91,-67.84 133.73,-92.53 58.21,-29.46 118.4,-53.45 184.12,-58.35 55.67,-4.17 108.02,8.18 152.79,42.75 35.35,27.27 61.38,62.94 79.16,103.65 13.48,30.83 23.71,63.04 35.31,94.69 0.53,1.48 0.46,3.17 0.89,6.17z"/>
   <path class="fil1" d="M2769.17 1492.22c12.63,7.55 23.35,15.27 35.14,20.77 25.5,11.86 51.36,9.18 76.69,-1.23 30.52,-12.52 57.15,-31.5 79.69,-54.89 52.67,-54.75 104.25,-110.63 155.58,-166.69 54.11,-59.13 108.8,-117.65 173,-166.26 46.07,-34.89 95.6,-63.61 151.73,-78.81 75.35,-20.43 148.84,-13.27 220.27,17.85 60.22,26.21 112.4,64.31 160.98,107.77 1.48,1.34 2.82,2.89 4.2,4.37 0.21,0.22 0.1,0.64 0.35,2.47 -9.95,-4.37 -19.12,-8.6 -28.47,-12.49 -80.61,-33.37 -159.74,-25.75 -238.02,8.37 -62.27,27.16 -118.39,64.52 -169.12,108.76 -92.15,80.43 -182.11,163.4 -272.84,245.42 -36.87,33.38 -74.08,66.15 -119.03,88.8 -25.29,12.73 -51.75,21.98 -79.97,22.65 -34.75,0.81 -65.48,-10.8 -90.49,-35.92 -30.62,-30.83 -47.87,-68.72 -59.69,-110.94z"/>
   <path class="fil0" d="M3256.62 1024.41c-20.99,19.94 -43.29,38.67 -62.66,60.01 -37.35,41.24 -73.51,83.58 -109.32,126.19 -37.82,44.94 -73.87,91.41 -112.15,135.93 -27.9,32.45 -57.47,63.67 -93.34,87.87 -18.7,12.63 -38.35,23.71 -61.67,22.69 -10.8,-0.5 -21.45,-4.73 -32.14,-7.41 -5.85,-1.48 -6.03,-5.08 -3.77,-10.02 16.58,-35.74 31.92,-72.11 49.77,-107.21 19.65,-38.66 46.25,-73.1 74.9,-105.41 37.71,-42.54 80.61,-79.62 128.27,-111.05 44.77,-29.5 92.46,-53.06 142.59,-71.44 25.75,-9.42 52.74,-15.38 79.16,-22.9l0.36 2.75z"/>
   <polygon class="fil0" points="6949.34,666.86 6666.02,666.86 6666.02,3.88 6949.34,3.88 "/>
   <polygon class="fil0" points="7150.21,665.73 6992.91,665.73 6992.91,2.76 7150.21,2.76 "/>
   <polygon class="fil0" points="6616.07,665.73 6299.95,665.73 6299.95,2.76 6616.07,2.76 "/>
   <polygon class="fil0" points="5276.68,3326.7 4989.87,3326.7 4989.87,2664.75 5276.68,2664.75 "/>
   <path class="fil0" d="M115.16 4056.18l0 -115.88 60.76 0c87.81,0 139.31,-44.84 139.31,-119.92 0,-75.52 -51.5,-121.38 -139.31,-121.38l-149 0 0 357.18 88.24 0zm0 -285.86l54.11 0c34.72,0 57.72,17.94 57.72,50.06 0,32.69 -23,50.05 -57.72,50.05l-54.11 0 0 -100.11zm420.11 285.86l0 -279.64 109.22 0 0 -77.54 -306.26 0 0 77.54 108.65 0 0 279.64 88.39 0zm359.25 0l0 -138.88 159.71 0 0 -67.27 -159.71 0 0 -79.13 175.63 0 0 -71.9 -263.87 0 0 357.18 88.24 0zm547.04 0l-119.93 -357.18 -116.31 0 -119.93 357.18 90.28 0 20.39 -67.85 132.81 0 20.39 67.85 92.3 0zm-181.12 -283.69l4.05 0 44.41 147.99 -92.87 0 44.41 -147.99zm338.37 288.75c92.44,0 141.91,-48.46 141.91,-124.99l0 -237.25 -88.82 0 0 233.64c0,37.75 -20.4,57.14 -53.09,57.14 -27.49,0 -50.06,-12.15 -58.16,-41.81l-83.76 18.37c16.93,69.44 81.16,94.9 141.92,94.9zm533.34 -5.06l-119.93 -357.18 -116.31 0 -119.93 357.18 90.28 0 20.39 -67.85 132.81 0 20.39 67.85 92.3 0zm-181.12 -283.69l4.05 0 44.41 147.99 -92.87 0 44.41 -147.99zm310.3 283.69l0 -124.56 54.11 0 58.15 124.56 98.52 0 -73.49 -138.3c39.35,-17.36 62.78,-52.08 62.78,-100.54 0,-75.52 -51.06,-118.34 -133.23,-118.34l-155.08 0 0 357.18 88.24 0zm0 -287.3l58.74 0c32.11,0 53.09,17.79 53.09,48.46 0,30.67 -20.98,48.03 -53.09,48.03l-58.74 0 0 -96.49zm515.01 287.3c113.71,0 181.7,-71.9 181.7,-178.66 0,-106.62 -67.99,-178.52 -181.7,-178.52l-136.27 0 0 357.18 136.27 0zm-48.03 -283.69l48.03 0c57.58,0 93.31,39.21 93.31,105.03 0,65.82 -35.73,105.17 -93.31,105.17l-48.03 0 0 -210.2zm549.59 283.69l0 -71.9 -178.09 0 0 -79.71 157.69 0 0 -64.23 -157.69 0 0 -69.44 178.09 0 0 -71.9 -266.33 0 0 357.18 266.33 0zm228.71 0l54.11 -271.97 4.48 0 54.11 271.97 109.8 0 87.23 -357.18 -83.76 0 -55.55 270.96 -4.05 0 -53.67 -270.96 -108.21 0 -52.95 270.96 -4.63 0 -54.68 -270.96 -88.83 0 87.38 357.18 109.22 0zm440.36 0l0 -357.18 -88.24 0 0 357.18 88.24 0zm330.85 5.06c92.88,0 143.37,-42.82 143.37,-101.99 0,-147.55 -201.67,-97.5 -201.67,-164.91 0,-19.82 18.95,-34.14 48.61,-34.14 28.07,0 50.49,12.29 59.6,40.79l84.78 -18.37c-17.94,-60.18 -71.47,-88.83 -144.96,-88.83 -87.23,0 -137.72,43.4 -137.72,100.55 0,144.95 202.1,95.91 202.1,163.32 0,22.43 -19.53,37.33 -54.11,37.33 -31.24,0 -60.32,-12.88 -72.47,-46.01l-83.19 18.38c17.36,64.81 83.19,93.88 155.66,93.88zm461.78 -5.06l0 -71.9 -178.09 0 0 -79.71 157.69 0 0 -64.23 -157.69 0 0 -69.44 178.09 0 0 -71.9 -266.33 0 0 357.18 266.33 0zm174.03 5.06c92.44,0 141.91,-48.46 141.91,-124.99l0 -237.25 -88.82 0 0 233.64c0,37.75 -20.4,57.14 -53.09,57.14 -27.49,0 -50.06,-12.15 -58.16,-41.81l-83.76 18.37c16.93,69.44 81.16,94.9 141.92,94.9zm533.34 -5.06l-119.93 -357.18 -116.31 0 -119.93 357.18 90.28 0 20.39 -67.85 132.81 0 20.39 67.85 92.3 0zm-181.12 -283.69l4.05 0 44.41 147.99 -92.87 0 44.41 -147.99zm310.3 283.69l0 -143.36 140.33 0 0 143.36 88.39 0 0 -357.18 -88.39 0 0 138.3 -140.33 0 0 -138.3 -88.24 0 0 357.18 88.24 0zm469.01 0l0 -279.64 109.22 0 0 -77.54 -306.26 0 0 77.54 108.65 0 0 279.64 88.39 0zm418.95 0l0 -71.9 -178.09 0 0 -79.71 157.69 0 0 -64.23 -157.69 0 0 -69.44 178.09 0 0 -71.9 -266.33 0 0 357.18 266.33 0zm145.96 0l0 -124.56 54.11 0 58.15 124.56 98.52 0 -73.49 -138.3c39.35,-17.36 62.78,-52.08 62.78,-100.54 0,-75.52 -51.06,-118.34 -133.23,-118.34l-155.08 0 0 357.18 88.24 0zm0 -287.3l58.74 0c32.11,0 53.09,17.79 53.09,48.46 0,30.67 -20.98,48.03 -53.09,48.03l-58.74 0 0 -96.49zm586.91 287.3l-119.93 -357.18 -116.31 0 -119.93 357.18 90.28 0 20.39 -67.85 132.81 0 20.39 67.85 92.3 0zm-181.12 -283.69l4.05 0 44.41 147.99 -92.87 0 44.41 -147.99z"/>
  </g>
 </g>
</svg>
